<?xml version="1.0" encoding="utf-8" ?>
<svg xmlns="http://www.w3.org/2000/svg" xmlns:xlink="http://www.w3.org/1999/xlink" width="26" height="26">
	<defs>
		<clipPath id="clip_0">
			<rect x="-28.76001" y="-15.759766" width="1382.4" height="880.32001" clip-rule="evenodd"/>
		</clipPath>
	</defs>
	<g clip-path="url(#clip_0)">
		<path fill="rgb(74,74,74)" stroke="none" transform="matrix(0.96 0 0 0.96 0.0400391 0.560059)" d="M22.1797 3.79953C17.1137 -1.26651 8.87069 -1.26651 3.80474 3.79953C2.02731 5.57696 0.811478 7.80996 0.28857 10.2572C-0.220501 12.6401 -0.0537487 15.109 0.77076 17.3967C0.869824 17.6715 1.17292 17.8139 1.44755 17.7149C1.72236 17.6158 1.86479 17.3128 1.76572 17.0381C1.0082 14.9362 0.855017 12.6678 1.32284 10.4781C1.80292 8.23098 2.91977 6.18007 4.55257 4.54727C9.20622 -0.10638 16.7782 -0.10638 21.4319 4.54727C23.648 6.76353 24.8886 9.70946 24.925 12.8426C24.9614 15.97 23.7959 18.9395 21.6434 21.2038C21.6179 21.2306 21.5927 21.2576 21.5675 21.2846C21.5229 21.3323 21.4784 21.38 21.4319 21.4266C16.7782 26.0802 9.20622 26.0802 4.55257 21.4266C4.5278 21.4018 4.50365 21.3766 4.47977 21.3514C4.47854 21.3025 4.47748 21.2544 4.47748 21.207C4.47748 21.1005 4.47951 20.9945 4.48338 20.8888C4.48471 20.8535 4.48735 20.8185 4.48911 20.7833C4.49255 20.713 4.49581 20.6428 4.50092 20.5729C4.50401 20.5312 4.5085 20.4899 4.5122 20.4484C4.51776 20.3854 4.52296 20.3224 4.52983 20.2597C4.53468 20.2155 4.54102 20.1716 4.54658 20.1275C4.55407 20.068 4.56121 20.0084 4.57002 19.9491C4.57672 19.904 4.58465 19.8593 4.59205 19.8145C4.60149 19.7567 4.61065 19.699 4.62132 19.6416C4.62969 19.5962 4.6393 19.5513 4.64846 19.5062C4.65983 19.4499 4.67102 19.3934 4.68354 19.3375C4.69368 19.2921 4.70496 19.247 4.7158 19.2018C4.72902 19.1468 4.74215 19.0917 4.75643 19.037C4.76833 18.9917 4.78119 18.9468 4.79371 18.9017C4.80878 18.8478 4.82376 18.7938 4.83989 18.7402C4.85338 18.6952 4.86783 18.6506 4.88211 18.606C4.89903 18.5531 4.91595 18.5 4.93385 18.4475C4.949 18.4032 4.96487 18.3591 4.98073 18.315C4.99951 18.2628 5.01837 18.2107 5.03811 18.1588C5.05485 18.115 5.07222 18.0717 5.08967 18.0282C5.1102 17.977 5.13092 17.9258 5.15242 17.875C5.17075 17.8319 5.18961 17.789 5.20865 17.7462C5.23095 17.6959 5.25351 17.6457 5.27678 17.5959C5.29661 17.5535 5.31688 17.5114 5.33742 17.4694C5.36157 17.4199 5.38598 17.3706 5.41101 17.3216C5.43225 17.2802 5.45385 17.239 5.47579 17.1979C5.5017 17.1492 5.52805 17.1008 5.55494 17.0526C5.57759 17.012 5.6005 16.9717 5.62377 16.9316C5.65144 16.8839 5.67956 16.8365 5.7082 16.7892C5.73226 16.7496 5.75659 16.7101 5.78127 16.6708C5.81071 16.624 5.84058 16.5776 5.8709 16.5315C5.89629 16.4928 5.92184 16.4543 5.94784 16.416C5.97896 16.3702 6.01077 16.3249 6.04285 16.2797C6.06956 16.2421 6.09627 16.2045 6.12359 16.1674C6.15646 16.1226 6.19004 16.0783 6.2238 16.0342C6.25174 15.9978 6.27959 15.9613 6.30814 15.9252C6.34278 15.8814 6.37821 15.8381 6.41373 15.795C6.44273 15.7598 6.47172 15.7245 6.50134 15.6897C6.53782 15.6469 6.57511 15.6047 6.61248 15.5625C6.64262 15.5285 6.67258 15.4944 6.70326 15.4609C6.74151 15.4191 6.78055 15.3782 6.81968 15.3372C6.85088 15.3044 6.88191 15.2715 6.91363 15.2392C6.95374 15.1985 6.99472 15.1586 7.03561 15.1186C7.0677 15.0873 7.09951 15.0557 7.13212 15.0248C7.17425 14.985 7.21735 14.9461 7.26027 14.9072C7.29306 14.8775 7.3254 14.8474 7.35863 14.8181C7.40296 14.7791 7.44844 14.7412 7.49365 14.703C7.52679 14.6751 7.55958 14.6467 7.59316 14.6192C7.63996 14.581 7.68791 14.5439 7.73568 14.5065C7.76899 14.4805 7.80178 14.4539 7.83544 14.4283C7.88577 14.3902 7.93715 14.3533 7.98845 14.3163C8.02079 14.2929 8.05252 14.2689 8.08531 14.2459C8.14189 14.2061 8.1998 14.1678 8.25753 14.1293C8.28599 14.1103 8.31384 14.0907 8.34249 14.072C8.41776 14.0231 8.49435 13.9757 8.57147 13.929C8.58345 13.9218 8.59509 13.9141 8.60716 13.9068C8.69635 13.8534 8.78678 13.8016 8.87826 13.7512C8.90955 13.734 8.94172 13.7179 8.97336 13.701C9.03409 13.6686 9.09464 13.6359 9.15642 13.6049C9.19599 13.585 9.23654 13.5663 9.27646 13.547C9.32688 13.5226 9.37711 13.4979 9.42814 13.4743C10.3866 14.3899 11.6652 14.9082 12.9923 14.9082C14.3195 14.9082 15.5982 14.3898 16.5566 13.4742C18.4277 14.3401 19.959 15.8938 20.7904 17.7833C20.908 18.0505 21.2199 18.1721 21.4874 18.0544C21.7547 17.9367 21.8761 17.6247 21.7584 17.3574C20.849 15.2906 19.2658 13.6391 17.2619 12.6421C17.8433 11.7892 18.1579 10.7821 18.1579 9.74277C18.1579 6.89449 15.8406 4.57723 12.9923 4.57723C12.7004 4.57723 12.4635 4.81405 12.4635 5.10605C12.4635 5.39804 12.7004 5.63486 12.9923 5.63486C15.2575 5.63486 17.1003 7.47769 17.1003 9.74277C17.1003 10.7556 16.7238 11.7309 16.0404 12.4888C16.0403 12.4889 16.0403 12.489 16.0402 12.4891C15.2598 13.3544 14.149 13.8507 12.9923 13.8507C11.8356 13.8507 10.7246 13.3544 9.94435 12.4891C9.94427 12.4889 9.94409 12.4888 9.94391 12.4887C9.2606 11.7306 8.88426 10.7555 8.88426 9.74286C8.88426 8.63729 9.31709 7.60011 10.1031 6.82258C10.3107 6.61713 10.3125 6.28231 10.1071 6.07475C9.9017 5.86701 9.56687 5.86542 9.35922 6.07069C8.37096 7.04811 7.82663 8.35226 7.82663 9.74251C7.82663 10.7807 8.14039 11.7872 8.72086 12.6396C8.71565 12.6422 8.71063 12.645 8.70552 12.6476C8.66427 12.6683 8.62399 12.6901 8.5831 12.7112C8.52044 12.7436 8.45759 12.7759 8.39581 12.8096C8.3521 12.8334 8.30935 12.8585 8.26608 12.8829C8.20835 12.9156 8.15053 12.9481 8.09359 12.9818C8.04944 13.0081 8.00599 13.0353 7.96227 13.0621C7.90763 13.0958 7.85298 13.1294 7.79913 13.164C7.75515 13.1923 7.71197 13.2214 7.66852 13.2503C7.61625 13.2851 7.56407 13.3201 7.5126 13.3559C7.46933 13.386 7.42658 13.4168 7.38384 13.4476C7.3336 13.4838 7.28354 13.5202 7.2341 13.5573C7.1917 13.5891 7.14984 13.6214 7.10806 13.6538C7.05959 13.6914 7.01147 13.7293 6.96387 13.7678C6.92262 13.8012 6.88173 13.8349 6.84101 13.8688C6.79421 13.908 6.74776 13.9475 6.70176 13.9876C6.66183 14.0222 6.62217 14.0571 6.58286 14.0924C6.53747 14.1332 6.4927 14.1745 6.44819 14.2161C6.40976 14.252 6.37142 14.2879 6.33353 14.3245C6.28955 14.367 6.24627 14.4101 6.20309 14.4534C6.16624 14.4903 6.1294 14.5271 6.09327 14.5646C6.05052 14.6089 6.00857 14.654 5.96671 14.6992C5.93172 14.7369 5.89646 14.7744 5.86209 14.8128C5.82022 14.8593 5.77951 14.9068 5.73861 14.9541C5.70574 14.9922 5.6726 15.0299 5.64034 15.0685C5.59883 15.1181 5.55864 15.1687 5.51818 15.2191C5.48813 15.2566 5.45746 15.2936 5.42793 15.3316C5.38545 15.3863 5.34438 15.442 5.30313 15.4975C5.27722 15.5324 5.2506 15.5667 5.22522 15.6019C5.17304 15.6742 5.12254 15.7475 5.07248 15.8212C5.05935 15.8406 5.04542 15.8595 5.03238 15.8789C4.97007 15.972 4.90952 16.0661 4.85056 16.1613C4.8302 16.1942 4.81107 16.2278 4.79115 16.2608C4.75299 16.3242 4.71465 16.3875 4.6779 16.4517C4.65498 16.4918 4.6333 16.5326 4.611 16.5731C4.57883 16.6313 4.54649 16.6893 4.51564 16.7481C4.49273 16.7918 4.47104 16.8359 4.44875 16.8799C4.42001 16.9367 4.39119 16.9933 4.36361 17.0507C4.34166 17.0964 4.32077 17.1425 4.29953 17.1885C4.27344 17.2451 4.24727 17.3017 4.22224 17.3589C4.20161 17.4061 4.18187 17.4537 4.16204 17.5012C4.13816 17.5582 4.11445 17.6152 4.09171 17.6727C4.07258 17.721 4.05425 17.7695 4.03592 17.8181C4.01424 17.8757 3.99282 17.9335 3.9722 17.9916C3.95475 18.0408 3.93782 18.0904 3.92108 18.14C3.90142 18.1982 3.8823 18.2567 3.86379 18.3155C3.84801 18.3654 3.83277 18.4156 3.81778 18.4658C3.80016 18.5251 3.78315 18.5846 3.76666 18.6444C3.75274 18.6948 3.73908 18.7453 3.72595 18.7961C3.71035 18.8564 3.69554 18.9171 3.68109 18.9779C3.66901 19.0287 3.65702 19.0793 3.64583 19.1303C3.63226 19.1919 3.61965 19.2538 3.60732 19.3159C3.59718 19.3667 3.58687 19.4174 3.57753 19.4684C3.56598 19.5317 3.55558 19.5954 3.54527 19.6591C3.53716 19.7093 3.52861 19.7595 3.5213 19.8099C3.51169 19.8756 3.50358 19.9417 3.4953 20.0078C3.48921 20.0568 3.48252 20.1058 3.47714 20.1549C3.46956 20.2242 3.46374 20.2939 3.45766 20.3636C3.45361 20.4101 3.44876 20.4564 3.44541 20.5031C3.43977 20.5809 3.43607 20.6591 3.43228 20.7373C3.43043 20.7762 3.42752 20.8148 3.42611 20.8538C3.42188 20.9712 3.4195 21.089 3.4195 21.2073C3.4195 21.335 3.42382 21.4557 3.42902 21.5891C3.43025 21.6199 3.43457 21.6499 3.44074 21.6792C3.44127 21.6814 3.44153 21.6837 3.44206 21.686C3.44858 21.7148 3.45775 21.7425 3.46877 21.7693C3.46982 21.772 3.47079 21.7746 3.47194 21.7772C3.48331 21.8037 3.49688 21.8289 3.51222 21.8529C3.51416 21.8559 3.51601 21.8589 3.51795 21.8618C3.53372 21.8853 3.55126 21.9074 3.57039 21.928C3.5718 21.9295 3.57277 21.9314 3.57418 21.9329L3.64398 22.0072C3.69669 22.0636 3.74939 22.1198 3.80439 22.1747C6.3374 24.7078 9.66461 25.9743 12.9919 25.9743C16.3192 25.9743 19.6464 24.7078 22.1794 22.1747C22.2344 22.1198 22.2871 22.0635 22.3398 22.0072L22.4096 21.9329C24.7531 19.4677 26.0219 16.2352 25.9823 12.8307C25.9429 9.4194 24.5923 6.21215 22.1797 3.79953Z"/>
	</g>
</svg>
